HIERARCHY
ROOT Pelvis
{
	OFFSET 0.000000 0.941512 0.000000
	CHANNELS 6 Xposition Yposition Zposition Zrotation Yrotation Xrotation 
	JOINT Pelvis_L_Hip
	{
		OFFSET 0.000000 0.000000 0.000000
		CHANNELS 3 Zrotation Yrotation Xrotation
		JOINT L_Hip
		{
			OFFSET 0.062321 -0.080322 -0.016990
			CHANNELS 3 Zrotation Yrotation Xrotation
			JOINT L_Knee
			{
				OFFSET 0.093051 -0.381305 -0.029784
				CHANNELS 3 Zrotation Yrotation Xrotation
				JOINT L_Ankle
				{
					OFFSET -0.010371 -0.431000 -0.033614
					CHANNELS 3 Zrotation Yrotation Xrotation
					End Site #name: L_Foot
					{
						OFFSET 0.069299 -0.038670 0.119418
					}
				}
			}
		}
	}
	JOINT Pelvis_R_Hip
	{
		OFFSET 0.000000 0.000000 0.000000
		CHANNELS 3 Zrotation Yrotation Xrotation
		JOINT R_Hip
		{
			OFFSET -0.055334 -0.094904 -0.002373
			CHANNELS 3 Zrotation Yrotation Xrotation
			JOINT R_Knee
			{
				OFFSET -0.064207 -0.384370 -0.019592
				CHANNELS 3 Zrotation Yrotation Xrotation
				JOINT R_Ankle
				{
					OFFSET 0.025418 -0.419734 -0.065953
					CHANNELS 3 Zrotation Yrotation Xrotation
					End Site #name: R_Foot
					{
						OFFSET -0.057233 -0.039888 0.132134
					}
				}
			}
		}
	}
	JOINT Pelvis_Spine1
	{
		OFFSET 0.000000 0.000000 0.000000
		CHANNELS 3 Zrotation Yrotation Xrotation
		JOINT Spine1
		{
			OFFSET -0.005562 0.124093 -0.043360
			CHANNELS 3 Zrotation Yrotation Xrotation
			JOINT Spine2
			{
				OFFSET 0.012244 0.139499 0.029894
				CHANNELS 3 Zrotation Yrotation Xrotation
				JOINT Spine3
				{
					OFFSET -0.002556 0.056561 0.009225
					CHANNELS 3 Zrotation Yrotation Xrotation
					JOINT Spine3_Neck
					{
						OFFSET 0.000000 0.000000 0.000000
						CHANNELS 3 Zrotation Yrotation Xrotation
						JOINT Neck
						{
							OFFSET -0.005205 0.217920 -0.024551
							CHANNELS 3 Zrotation Yrotation Xrotation
							End Site #name: Head
							{
								OFFSET 0.002365 0.091850 0.046637
							}
						}
					}
					JOINT Spine3_L_Collar
					{
						OFFSET 0.000000 0.000000 0.000000
						CHANNELS 3 Zrotation Yrotation Xrotation
						JOINT L_Collar
						{
							OFFSET 0.072225 0.116603 -0.009480
							CHANNELS 3 Zrotation Yrotation Xrotation
							JOINT L_Shoulder
							{
								OFFSET 0.115937 -0.058643 -0.021018
								CHANNELS 3 Zrotation Yrotation Xrotation
								JOINT L_Elbow
								{
									OFFSET 0.021994 -0.254722 -0.024492
									CHANNELS 3 Zrotation Yrotation Xrotation
									End Site #name: L_Wrist
									{
										OFFSET 0.048810 -0.240214 0.103329
									}
								}
							}
						}
					}
					JOINT Spine3_R_Collar
					{
						OFFSET 0.000000 0.000000 0.000000
						CHANNELS 3 Zrotation Yrotation Xrotation
						JOINT R_Collar
						{
							OFFSET -0.073372 0.120704 -0.024611
							CHANNELS 3 Zrotation Yrotation Xrotation
							JOINT R_Shoulder
							{
								OFFSET -0.108089 -0.054969 -0.020504
								CHANNELS 3 Zrotation Yrotation Xrotation
								JOINT R_Elbow
								{
									OFFSET -0.033684 -0.260739 0.009889
									CHANNELS 3 Zrotation Yrotation Xrotation
									End Site #name: R_Wrist
									{
										OFFSET -0.067980 -0.232763 0.118463
									}
								}
							}
						}
					}
				}
			}
		}
	}
}
MOTION
Frames: 7
Frame Time: 0.041667
0.000000 0.932755 0.000000 -1.325508 -1.218506 2.273641 0.000000 0.000000 0.000000 -5.645054 1.378456 3.053733 -0.926132 0.176517 -6.205133 1.651221 -3.610306 -4.754003 0.000000 0.000000 0.000000 2.435887 -0.034796 -0.542168 -1.161319 0.278235 1.350050 0.979091 15.005704 -6.141930 0.000000 0.000000 0.000000 1.695830 0.285729 -6.439891 1.245297 -0.125511 2.241303 -0.185081 0.819056 3.372798 0.000000 0.000000 0.000000 -2.356638 1.210873 -0.634282 0.000000 0.000000 0.000000 6.613776 -3.604408 -0.848355 -9.281143 2.229877 7.532387 2.497063 -0.637919 -9.384086 0.000000 0.000000 0.000000 -5.657404 5.090119 -1.813979 9.403343 -1.359898 7.891358 -4.913352 -1.526192 -3.970291 
0.002391 0.932612 0.000817 -1.304733 -1.110137 2.150531 0.000000 0.000000 0.000000 -5.776349 1.431112 3.183132 -1.014554 0.177004 -6.128129 1.776690 -3.632503 -4.974906 0.000000 0.000000 0.000000 2.298439 -0.068922 -0.319153 -1.229131 0.288231 1.329651 0.902841 14.885313 -6.238164 0.000000 0.000000 0.000000 1.800159 0.229067 -6.043269 1.064417 -0.107537 1.828163 -0.122003 0.877884 3.697735 0.000000 0.000000 0.000000 -2.384699 1.226386 -1.097385 0.000000 0.000000 0.000000 6.819930 -3.659334 -0.842492 -9.733772 2.280361 7.366909 2.616031 -0.621073 -9.635245 0.000000 0.000000 0.000000 -5.736812 5.304182 -1.930513 9.380262 -1.417329 8.137115 -4.953792 -1.536235 -4.024700 
0.005911 0.932344 0.001920 -1.269638 -1.060158 2.187482 0.000000 0.000000 0.000000 -6.036217 1.438037 3.105115 -1.037384 0.174360 -5.929661 1.876450 -3.713448 -5.183057 0.000000 0.000000 0.000000 2.189410 -0.037667 -0.455673 -1.535834 0.365637 1.671070 0.756805 14.768230 -6.464455 0.000000 0.000000 0.000000 1.900872 0.197749 -5.899798 1.012126 -0.100673 1.761139 -0.111387 0.968538 3.759593 0.000000 0.000000 0.000000 -2.437148 1.253178 -1.241136 0.000000 0.000000 0.000000 6.718769 -3.550300 -0.789309 -9.861525 2.279675 7.248236 2.504139 -0.745060 -9.973413 0.000000 0.000000 0.000000 -5.835431 5.415638 -1.984465 9.258207 -1.443094 8.270964 -4.997394 -1.565940 -4.004891 
0.010072 0.932005 0.003699 -1.244521 -0.958590 2.104425 0.000000 0.000000 0.000000 -6.310986 1.494393 3.189843 -1.042238 0.170464 -5.710929 1.974782 -3.927942 -5.448430 0.000000 0.000000 0.000000 2.154972 -0.013348 -0.573184 -2.017474 0.501852 2.339130 0.505306 14.561389 -6.854154 0.000000 0.000000 0.000000 1.951431 0.170869 -5.713778 1.002174 -0.099834 1.736000 -0.057836 1.051112 3.806712 0.000000 0.000000 0.000000 -2.449676 1.260115 -1.424370 0.000000 0.000000 0.000000 6.621851 -3.518072 -0.779840 -10.012860 2.300215 7.228688 2.363008 -0.877254 -10.249122 0.000000 0.000000 0.000000 -5.917569 5.517507 -2.036838 9.061170 -1.470815 8.430154 -5.038694 -1.566969 -4.097777 
0.014673 0.931449 0.005319 -1.185510 -0.951872 2.014543 0.000000 0.000000 0.000000 -6.650251 1.547444 3.236979 -1.061281 0.166186 -5.396046 2.125670 -4.141596 -5.807006 0.000000 0.000000 0.000000 2.318359 0.112477 -1.283487 -2.944072 0.823698 4.105029 -0.028657 14.123786 -7.679946 0.000000 0.000000 0.000000 1.937534 0.135281 -5.348136 0.960697 -0.101385 1.494668 0.025134 1.158467 3.873995 0.000000 0.000000 0.000000 -2.464737 1.268227 -1.640317 0.000000 0.000000 0.000000 6.566386 -3.454632 -0.747537 -10.140268 2.313189 7.184295 2.288631 -0.934284 -10.351005 0.000000 0.000000 0.000000 -5.992493 5.701771 -2.137290 8.921626 -1.490631 8.544008 -5.112123 -1.593411 -4.154678 
0.019529 0.930711 0.007248 -0.976009 -0.770322 1.707463 0.000000 0.000000 0.000000 -7.087136 1.722243 3.646170 -1.147790 0.165628 -5.226563 2.199182 -4.684971 -6.172933 0.000000 0.000000 0.000000 2.624338 0.297257 -2.311992 -4.401354 1.417452 7.115682 -0.667090 13.248268 -8.547945 0.000000 0.000000 0.000000 1.740426 0.115533 -4.814410 0.917661 -0.100493 1.315931 0.048279 1.161299 3.938647 0.000000 0.000000 0.000000 -2.340522 1.207724 -1.807201 0.000000 0.000000 0.000000 6.672646 -3.631005 -0.828854 -10.328784 2.341110 7.171723 2.304579 -0.922859 -10.324852 0.000000 0.000000 0.000000 -6.139639 5.801489 -2.180255 9.038523 -1.497875 8.540454 -5.281694 -1.660758 -4.262539 
0.024151 0.930002 0.009045 -0.718980 -0.481513 1.244508 0.000000 0.000000 0.000000 -7.516405 1.973063 4.295669 -1.267722 0.167768 -5.183742 2.233962 -5.291688 -6.488897 0.000000 0.000000 0.000000 3.005666 0.670995 -4.286536 -5.976947 2.396411 12.383337 -1.086614 12.108109 -8.907485 0.000000 0.000000 0.000000 1.574349 0.066453 -4.019749 0.853167 -0.096885 1.117719 -0.033815 1.100668 3.910636 0.000000 0.000000 0.000000 -2.172379 1.125336 -1.831454 0.000000 0.000000 0.000000 6.563102 -4.008141 -1.061108 -10.225760 2.321211 7.176984 2.423045 -0.775579 -9.882210 0.000000 0.000000 0.000000 -6.224647 5.866998 -2.213044 9.161417 -1.502610 8.528035 -5.418958 -1.688279 -4.465906 
